<svg width="256" height="256" viewBox="0 0 256 256" fill="none" xmlns="http://www.w3.org/2000/svg">
<path d="M59.6162 216C56.5354 216 53.5807 214.769 51.4023 212.579C49.2238 210.389 48 207.418 48 204.32V53.0319C48.3946 50.2479 49.7749 47.7005 51.8875 45.8575C54.0001 44.0146 56.7031 43 59.5 43C62.2969 43 64.9999 44.0146 67.1125 45.8575C69.2251 47.7005 70.6054 50.2479 71 53.0319V204.437C70.9704 207.475 69.7651 210.381 67.6399 212.539C65.5146 214.698 62.6365 215.939 59.6162 216V216Z" fill="#07ADDC"/>
<path d="M127.634 182C124.584 182 121.659 180.759 119.502 178.55C117.346 176.341 116.134 173.345 116.134 170.221V85.5726C115.882 83.8939 115.986 82.1792 116.442 80.5459C116.897 78.9127 117.691 77.3995 118.771 76.1103C119.851 74.8211 121.19 73.7863 122.696 73.0768C124.203 72.3673 125.842 72 127.5 72C129.158 72 130.797 72.3673 132.304 73.0768C133.81 73.7863 135.149 74.8211 136.229 76.1103C137.309 77.3995 138.103 78.9127 138.558 80.5459C139.014 82.1792 139.118 83.8939 138.866 85.5726V170.378C138.827 173.428 137.635 176.343 135.54 178.511C133.445 180.678 130.611 181.929 127.634 182V182Z" fill="#07ADDC"/>
<path d="M196.14 216C192.957 216 189.905 214.772 187.655 212.587C185.404 210.402 184.14 207.439 184.14 204.349V53.4258C183.876 51.7653 183.986 50.0691 184.461 48.4535C184.936 46.8379 185.765 45.3412 186.891 44.0659C188.018 42.7906 189.415 41.767 190.987 41.0652C192.56 40.3634 194.27 40 196 40C197.73 40 199.44 40.3634 201.013 41.0652C202.585 41.767 203.982 42.7906 205.109 44.0659C206.235 45.3412 207.064 46.8379 207.539 48.4535C208.014 50.0691 208.124 51.7653 207.86 53.4258V204.465C207.83 207.489 206.59 210.382 204.403 212.535C202.216 214.687 199.253 215.93 196.14 216V216Z" fill="#07ADDC"/>
</svg>
