<svg xmlns="http://www.w3.org/2000/svg" width="16" height="16" viewBox="0 0 16 16">
    <g fill="#123049">
        <path d="M12.171 0c-1.022 0-1.984.398-2.707 1.122L6.483 4.103c.228-.032.455-.066.688-.066.643 0 1.272.124 1.85.356l1.857-1.857c.346-.346.805-.536 1.293-.536C13.18 2 14 2.82 14 3.829c0 .488-.19.947-.536 1.293l-3.342 3.342c-.692.69-1.895.691-2.586 0L6.123 9.88c.722.722 1.684 1.12 2.706 1.12s1.983-.398 2.707-1.122l3.342-3.342C15.602 5.813 16 4.85 16 3.829 16 1.717 14.283 0 12.171 0z"/>
        <path d="M6.961 11.625l-1.84 1.84c-.345.345-.804.535-1.292.535C2.82 14 2 13.18 2 12.171c0-.488.19-.947.536-1.293l3.342-3.342c.692-.69 1.895-.691 2.586 0L9.877 6.12c-1.445-1.444-3.966-1.445-5.413.002L1.122 9.464C.398 10.187 0 11.15 0 12.171 0 14.283 1.717 16 3.829 16c1.022 0 1.983-.398 2.707-1.122l2.941-2.941c-.214.028-.428.063-.648.063-.653 0-1.284-.13-1.868-.375z"/>
    </g>
</svg>
