<svg xmlns="http://www.w3.org/2000/svg" width="14" height="16" viewBox="0 0 14 16">
    <path fill="#123049" d="M13.081 0c-.347 0-.856.462-1.063.662l-.499.49c-.085.082-.198.127-.321.127-.124 0-.237-.045-.322-.127L10.369.66C10.03.333 9.466 0 9.046 0c-.42 0-.983.333-1.323.661l-.507.49c-.085.083-.2.128-.324.128s-.239-.045-.324-.128L6.06.661C5.73.341 5.152 0 4.737 0c-.416 0-.992.34-1.324.661l-.507.49c-.086.083-.2.128-.325.128-.123 0-.238-.045-.324-.128L1.75.661C1.722.634 1.049 0 .642 0 .177 0 0 .63 0 1.169V14.83C0 15.371.177 16 .642 16c.391 0 1.022-.593 1.091-.66l.517-.491c.085-.083.202-.128.327-.128.124 0 .24.045.326.128l.509.49c.331.32.908.661 1.324.661.415 0 .992-.34 1.324-.661l.508-.49c.085-.083.2-.128.324-.128s.239.045.324.128l.508.49c.331.32.908.661 1.323.661.416 0 .992-.34 1.324-.661l.507-.49c.086-.083.2-.128.324-.128s.24.045.325.128l.507.49c.256.247.72.661 1.047.661.383 0 .581-.415.581-1.169V1.17c0-.754-.198-1.169-.58-1.169zm-2.414 12.018H7.306V10.63h3.36v1.388zm0-3.36H3.068V7.342h7.599v1.316zm0-3.288H3.068V3.982h7.599V5.37z"/>
</svg>
