<svg xmlns="http://www.w3.org/2000/svg" data-name="Layer 1" viewBox="0 0 54 54"><path fill="#9ACDED" stroke="#9ACDED" d="M17.88 23.66c0-.99.8-1.79 1.79-1.79h18.4a1.79 1.79 0 110 3.57h-18.4c-.99 0-1.79-.8-1.79-1.78zM38.07 29.02a1.79 1.79 0 110 3.57H26.9a1.79 1.79 0 110-3.57h11.17z"/><path fill="#9ACDED" stroke="#9ACDED" d="M33.88 46.17h5.97c1.97 0 3.58-1.6 3.58-3.57V11.15c0-1.97-1.6-3.58-3.58-3.58H17.88a3.58 3.58 0 00-3.57 3.58v10.99a1.79 1.79 0 11-3.58 0v-11c0-3.93 3.21-7.14 7.15-7.14h21.97C43.8 4 47 7.2 47 11.15V42.6c0 3.94-3.2 7.15-7.15 7.15h-5.97a1.79 1.79 0 110-3.58z"/><path fill="#9ACDED" stroke="#9ACDED" d="M7.57 29.87a5.37 5.37 0 017.58 0l9.8 9.8c.22.2.37.46.46.74l2.13 7.03a1.79 1.79 0 01-2.18 2.24l-7.22-2c-.3-.08-.56-.23-.78-.45l-9.8-9.77a5.37 5.37 0 010-7.59zm11.98 14.5l3.63 1-1.06-3.5-6.62-6.6-2.53 2.53 6.58 6.57zm-9.46-9.44l.35.34 2.53-2.52-.35-.35a1.79 1.79 0 00-2.53 2.53zM19.67 14.72h18.4a1.79 1.79 0 110 3.58h-18.4a1.79 1.79 0 010-3.58z"/></svg>