<svg id="Layer_1" data-name="Layer 1" xmlns="http://www.w3.org/2000/svg" viewBox="0 0 53.46 53.41"><title>core-api-icon</title><path d="M27.68,38.5a11.8,11.8,0,1,1,12-11.79A11.88,11.88,0,0,1,27.68,38.5Zm0-18.81a7,7,0,1,0,7.18,7A7.11,7.11,0,0,0,27.68,19.69Z" style="fill:#06addc"/><path d="M27.68,30.21A3.51,3.51,0,1,0,24,26.71,3.59,3.59,0,0,0,27.68,30.21Z" style="fill:#88c7e8"/><path d="M27.68,30.37a3.67,3.67,0,1,1,3.83-3.66A3.74,3.74,0,0,1,27.68,30.37Zm0-7a3.35,3.35,0,1,0,3.51,3.35A3.43,3.43,0,0,0,27.68,23.36Z" style="fill:#88c7e8"/><path d="M27.78,48.87A22.16,22.16,0,1,1,47.42,16.52a3.19,3.19,0,0,1-5.67,2.93,15.79,15.79,0,1,0,0,14.51,3.19,3.19,0,1,1,5.67,2.93A22,22,0,0,1,27.78,48.87Z" style="fill:#88c7e8"/></svg>