<svg id="Layer_1" data-name="Layer 1" xmlns="http://www.w3.org/2000/svg" viewBox="0 0 202.64 61.5"><title>home-title-icon</title><path d="M156.53,17.28a10.63,10.63,0,0,0-8.78,4.62A10.53,10.53,0,0,0,139,17.3,10.65,10.65,0,0,0,128.39,28V42.2a1.9,1.9,0,0,0,1.92,1.93,1.86,1.86,0,0,0,1.88-1.93V27.58a6.85,6.85,0,0,1,13.69,0V40.13h0a1.91,1.91,0,0,0,3.81,0V27.57a6.85,6.85,0,1,1,13.69,0V42.18a1.91,1.91,0,1,0,3.81,0V28A10.71,10.71,0,0,0,156.53,17.28Z" style="fill:gray"/><path d="M182.56,44.24c-7,0-12.8-5.4-12.8-13.34v-.1c0-7.39,5.21-13.34,12.3-13.34,7.59,0,11.9,6.2,11.9,13a1.77,1.77,0,0,1-1.78,1.78H173.63c.55,5.56,4.46,8.68,9,8.68a10.52,10.52,0,0,0,7.39-3,1.63,1.63,0,1,1,2.18,2.42A13,13,0,0,1,182.56,44.24Zm7.58-14.82c-.39-4.67-3.07-8.73-8.18-8.73-4.46,0-7.83,3.72-8.33,8.73Z" style="fill:gray"/><path d="M74.77,11.32a1.93,1.93,0,1,1,3.85,0V22.44a9.81,9.81,0,0,1,8.87-5.06c6.26,0,9.92,4.2,9.92,10.37V42.12a1.93,1.93,0,1,1-3.86,0V28.7c0-4.81-2.6-7.82-7.16-7.82S78.62,24.14,78.62,29V42.12a1.88,1.88,0,0,1-1.9,2,1.92,1.92,0,0,1-2-2" style="fill:gray"/><path d="M99.66,30.83v-.1a13.24,13.24,0,0,1,26.48-.1v.1A13.19,13.19,0,0,1,112.83,44,13,13,0,0,1,99.66,30.83Zm22.6,0v-.1a9.62,9.62,0,0,0-9.43-9.93c-5.51,0-9.29,4.48-9.29,9.83v.1c0,5.45,4,9.87,9.38,9.87C118.43,40.6,122.26,36.18,122.26,30.83Z" style="fill:gray"/><path d="M49.59,28.05,33.15,9.9a.23.23,0,0,0-.07-.07,4.44,4.44,0,0,0-6.34,0l-.07.07L10.06,28.06a2,2,0,0,0-.18,2.44,1.5,1.5,0,0,0,2.34.12l1.22-1.33s0,0,0,0V44.24c0,3.86,2.86,7,6.38,7h20c3.49,0,6.34-3.11,6.35-6.94A1.73,1.73,0,0,0,45,42.59a1.63,1.63,0,0,0-2,1.68,3.45,3.45,0,0,1-3.35,3.48H36.39v-9c0-3.08-2.82-5.65-6.37-5.69s-6.55,2.48-6.55,5.6v9H19.86a3.36,3.36,0,0,1-3.2-3.51V25.76L28.88,12.39a1.47,1.47,0,0,1,2.05,0L43,25.71s0,0,0,0v9.71a1.78,1.78,0,0,0,1.44,1.86,1.66,1.66,0,0,0,1.73-1.74V29.29a0,0,0,0,1,0,0l1.22,1.34a1.5,1.5,0,0,0,1.12.51,1.45,1.45,0,0,0,1-.38A1.94,1.94,0,0,0,49.59,28.05ZM26.05,38.77a3.67,3.67,0,0,1,3.79-3.43,3.67,3.67,0,0,1,4,3.36v9H26.05Z" style="fill:#9acded"/><path d="M39.83,52h-20c-3.88,0-7-3.46-7-7.71V31l-.14.15a2.08,2.08,0,0,1-1.69.72A2.2,2.2,0,0,1,9.38,31a2.73,2.73,0,0,1,.22-3.41L26.29,9.28a5.07,5.07,0,0,1,7.23,0l.1.11L50.05,27.54a2.81,2.81,0,0,1,.71,2A2.47,2.47,0,0,1,50,31.3a2.15,2.15,0,0,1-3-.18L46.84,31v4.59a2.61,2.61,0,0,1-.73,1.82,2.12,2.12,0,0,1-1.72.63,2.47,2.47,0,0,1-2-2.57V26L30.47,12.9a.85.85,0,0,0-1.17,0l-12,13.12V44.24A2.68,2.68,0,0,0,19.86,47h2.95V38.7a5.92,5.92,0,0,1,1.61-4A7.47,7.47,0,0,1,30,32.38c3.87,0,7,2.92,7,6.41V47h2.61a2.76,2.76,0,0,0,2.69-2.76,2.55,2.55,0,0,1,.87-2,2.09,2.09,0,0,1,2-.43,2.48,2.48,0,0,1,1.66,2.41C46.82,48.52,43.68,52,39.83,52ZM13.28,28.44l.84.35,0,.52V44.24a6,6,0,0,0,5.72,6.27h20a6,6,0,0,0,5.69-6.22,1,1,0,0,0-.67-1,.89.89,0,0,0-.83.18,1,1,0,0,0-.36.81,4.11,4.11,0,0,1-4,4.2H35.73V38.79c0-2.7-2.56-4.93-5.71-5a6.12,6.12,0,0,0-4.68,1.9,4.35,4.35,0,0,0-1.22,3v9.77H19.86A4.06,4.06,0,0,1,16,44.24V25.52l.19-.27L28.41,11.88a2.1,2.1,0,0,1,2.95,0L43.65,25.41v10a1.09,1.09,0,0,0,.85,1.14.87.87,0,0,0,.71-.26,1.06,1.06,0,0,0,.3-.76V28.81l.83-.39.34.35L47.9,30.1a.88.88,0,0,0,1.24.08,1,1,0,0,0,.31-.69,1.34,1.34,0,0,0-.33-.94L32.68,10.4a3.85,3.85,0,0,0-5.51-.05l0,.05L10.52,28.57A1.2,1.2,0,0,0,10.39,30a.89.89,0,0,0,.67.36.87.87,0,0,0,.7-.29Z" style="fill:#9acded"/></svg>