<svg id="Layer_1" data-name="Layer 1" xmlns="http://www.w3.org/2000/svg" viewBox="0 0 53.46 54.41"><title>home-icon</title><path d="M46.49,26.07,30.05,7.92,30,7.85a4.45,4.45,0,0,0-6.35,0l-.06.06L7,26.09a2,2,0,0,0-.18,2.43,1.5,1.5,0,0,0,2.34.12l1.21-1.33a0,0,0,0,1,.05,0V42.26c0,3.86,2.85,7,6.37,7h20c3.49,0,6.33-3.1,6.35-6.93a1.75,1.75,0,0,0-1.17-1.71,1.63,1.63,0,0,0-2,1.68,3.44,3.44,0,0,1-3.34,3.48H33.3v-9c0-3.08-2.82-5.65-6.37-5.7s-6.56,2.49-6.56,5.61v9H16.76a3.37,3.37,0,0,1-3.2-3.51V23.79L25.78,10.41a1.49,1.49,0,0,1,2.06,0L39.9,23.73a0,0,0,0,1,0,0v9.71a1.78,1.78,0,0,0,1.45,1.86,1.65,1.65,0,0,0,1.73-1.73V27.32s0,0,0,0l1.21,1.33a1.5,1.5,0,0,0,1.13.52,1.48,1.48,0,0,0,1-.39A2,2,0,0,0,46.49,26.07ZM23,36.79a3.66,3.66,0,0,1,3.78-3.43,3.68,3.68,0,0,1,4,3.37v9H23Z" style="fill:#9acded"/><path d="M36.74,50h-20c-3.87,0-7-3.45-7-7.71V29l-.14.16a2.06,2.06,0,0,1-1.68.71A2.17,2.17,0,0,1,6.29,29a2.72,2.72,0,0,1,.21-3.4L23.2,7.31a5.05,5.05,0,0,1,7.23,0l.1.1L47,25.56a2.81,2.81,0,0,1,.7,2,2.39,2.39,0,0,1-.79,1.72,2.13,2.13,0,0,1-3-.18L43.74,29v4.6A2.55,2.55,0,0,1,43,35.4,2.1,2.1,0,0,1,41.3,36a2.47,2.47,0,0,1-2-2.58V24L27.37,10.92a.85.85,0,0,0-1.17,0l-12,13.13V42.26a2.68,2.68,0,0,0,2.54,2.79h2.95V36.73a6,6,0,0,1,1.61-4,7.5,7.5,0,0,1,5.62-2.32c3.86.05,7,2.93,7,6.42v8.23h2.62a2.77,2.77,0,0,0,2.69-2.76,2.52,2.52,0,0,1,.87-1.95,2.14,2.14,0,0,1,2-.43,2.47,2.47,0,0,1,1.65,2.41C43.73,46.54,40.59,50,36.74,50ZM10.19,26.46l.84.36V42.26a6,6,0,0,0,5.72,6.28h20a6,6,0,0,0,5.69-6.23,1,1,0,0,0-.67-1,.86.86,0,0,0-.83.17,1.06,1.06,0,0,0-.36.81,4.11,4.11,0,0,1-4,4.2H32.64V36.82c0-2.71-2.57-4.94-5.72-5a6.11,6.11,0,0,0-4.67,1.9,4.37,4.37,0,0,0-1.22,3v9.76H16.76a4.06,4.06,0,0,1-3.85-4.23V23.54l.19-.26L25.32,9.9a2.1,2.1,0,0,1,2.95,0L40.56,23.44v10a1.08,1.08,0,0,0,.84,1.14.86.86,0,0,0,.72-.26,1.08,1.08,0,0,0,.3-.75V26.84l.83-.4.33.35,1.22,1.34a.88.88,0,0,0,1.24.07,1,1,0,0,0,.3-.68,1.3,1.3,0,0,0-.32-.94L29.59,8.43a3.85,3.85,0,0,0-5.51-.06l0,.05L7.43,26.6a1.19,1.19,0,0,0-.14,1.46.94.94,0,0,0,.68.37.92.92,0,0,0,.7-.3Z" style="fill:#9acded"/></svg>