<svg id="Layer_1" data-name="Layer 1" xmlns="http://www.w3.org/2000/svg" viewBox="0 0 129.62 46.63"><title>Artboard 2</title><path d="M66.33,11.57a2,2,0,0,1,1.94-2,2,2,0,0,1,2,2V35.16a1.92,1.92,0,0,1-1.94,2,2,2,0,0,1-2-2Z" style="fill:gray"/><path d="M97.65,11.57a2,2,0,1,1,3.93,0V35.16a1.92,1.92,0,0,1-1.94,2,2,2,0,0,1-2-2Z" style="fill:gray"/><path d="M108.32,34a1.84,1.84,0,0,1-.73-1.47,1.75,1.75,0,0,1,1.78-1.73,1.61,1.61,0,0,1,1,.31A15.25,15.25,0,0,0,119,34c3.25,0,5.62-1.68,5.62-4.31v-.1c0-2.73-3.2-3.78-6.77-4.78-4.26-1.2-9-2.67-9-7.66V17c0-4.67,3.88-7.76,9.24-7.76a18.91,18.91,0,0,1,8.66,2.31,2,2,0,0,1,1,1.68A1.76,1.76,0,0,1,126,15a2.08,2.08,0,0,1-.89-.21,14.73,14.73,0,0,0-7.09-2.1c-3.2,0-5.25,1.68-5.25,3.94v.1c0,2.57,3.36,3.57,7,4.67,4.2,1.26,8.72,2.89,8.72,7.77v.1c0,5.15-4.25,8.14-9.66,8.14A18.81,18.81,0,0,1,108.32,34" style="fill:gray"/><path d="M92.58,11.44a1.87,1.87,0,0,0-1.87-1.87H89.44A11.51,11.51,0,0,0,77.93,21.09v14A2.05,2.05,0,0,0,80,37.13a2,2,0,0,0,2-2.08V20.69a7.39,7.39,0,0,1,7.39-7.39h1.28A1.87,1.87,0,0,0,92.58,11.44Z" style="fill:gray"/><path d="M39.61,26.87a3,3,0,0,1,3,3V33.9a3,3,0,0,1-5.94,0V29.84A3,3,0,0,1,39.61,26.87Z" style="fill:#07addc"/><path d="M4,26.87a3,3,0,0,1,3,3v4a3,3,0,0,1-5.94,0v-4A3,3,0,0,1,4,26.87Z" style="fill:#07addc"/><path d="M4,9.31a3,3,0,0,1,3,3v4a3,3,0,0,1-5.94,0v-4A3,3,0,0,1,4,9.31Z" style="fill:#07addc"/><path d="M39.61,9.31a3,3,0,0,1,3,3v4a3,3,0,0,1-5.94,0v-4A3,3,0,0,1,39.61,9.31Z" style="fill:#07addc"/><path d="M21.79,37.14a3,3,0,0,1,3,3v2.71a3,3,0,0,1-6,0V40.11A3,3,0,0,1,21.79,37.14Z" style="fill:#07addc"/><path d="M21.79.93a3,3,0,0,1,3,3V6.61a3,3,0,0,1-6,0V3.9A3,3,0,0,1,21.79.93Z" style="fill:#07addc"/><path d="M21.79,16.28a3,3,0,0,1,3,3v8.2a3,3,0,0,1-6,0v-8.2A3,3,0,0,1,21.79,16.28Z" style="fill:#07addc"/></svg>