<svg xmlns="http://www.w3.org/2000/svg" width="16" height="16" viewBox="0 0 16 16">
    <g fill="#123049">
        <path d="M8 .016c-1.292 0-2.344 1.082-2.344 2.375 0 1.292 1.052 2.343 2.344 2.343 1.292 0 2.344-1.051 2.344-2.343C10.344 1.098 9.292.016 8 .016zM11.281 8.484c1.034 0 1.875-.84 1.875-1.875 0-1.034-.84-1.875-1.875-1.875-1.034 0-1.875.841-1.875 1.875s.841 1.875 1.875 1.875zM.469 14.11h.469c.517 0 .937-.42.937-.938V7.547c0-.518-.42-.938-.937-.938h-.47C.21 6.61 0 6.82 0 7.08v6.562c0 .259.21.468.469.468zM2.813 7.547v5.625c0 .094-.015.185-.028.276L5.52 14.8c.323.161.686.247 1.048.247h4.234c.348 0 .689-.097.985-.28l3.839-2.713c.413-.311.497-.9.187-1.314-.282-.375-.827-.537-1.313-.187l-2.885 1.628c-.067.035-.142.053-.218.053H6.031c-.259 0-.468-.21-.468-.468 0-.26.21-.47.468-.47h4.313c.518 0 .937-.419.937-.937 0-.517-.42-.937-.937-.937H8.142L5.92 7.94c-.386-.258-.836-.394-1.3-.394H2.813z"/>
    </g>
</svg>
