<svg xmlns="http://www.w3.org/2000/svg" width="16" height="16" viewBox="0 0 16 16">
    <g fill="#123049">
        <path d="M4.796 12.79c-.883 0-1.59.715-1.59 1.599 0 .883.707 1.599 1.59 1.599.884 0 1.599-.716 1.599-1.6 0-.883-.715-1.598-1.599-1.598zM5.676 8.793h5.955c.6 0 1.123-.332 1.399-.823l2.858-5.188c.064-.112.1-.244.1-.384 0-.444-.36-.8-.8-.8H3.37L2.61 0H0v1.599h1.599l2.874 6.063-1.08 1.958c-.124.232-.196.492-.196.772 0 .883.716 1.599 1.6 1.599h9.592v-1.6H5.136c-.112 0-.2-.087-.2-.199 0-.036.008-.068.024-.096l.716-1.303zM12.79 12.79c-.883 0-1.59.715-1.59 1.599 0 .883.707 1.599 1.59 1.599.883 0 1.599-.716 1.599-1.6 0-.883-.716-1.598-1.599-1.598z"/>
    </g>
</svg>
