<svg xmlns="http://www.w3.org/2000/svg" width="16" height="16" viewBox="0 0 16 16">
    <g fill="#123049">
        <path d="M15.2 0H.8C.32 0 0 .32 0 .8v14.4c0 .48.32.8.8.8h14.4c.48 0 .8-.32.8-.8V.8c0-.48-.32-.8-.8-.8zM8.8 1.6c.48 0 .8.32.8.8 0 .48-.32.8-.8.8-.48 0-.8-.32-.8-.8 0-.48.4-.8.8-.8zm-3.2 0c.48 0 .8.32.8.8 0 .48-.32.8-.8.8-.48 0-.8-.32-.8-.8 0-.48.4-.8.8-.8zm-3.2 0c.48 0 .8.32.8.8 0 .48-.32.8-.8.8-.48 0-.8-.32-.8-.8 0-.48.4-.8.8-.8zm12 12.8H1.6V4.8h12.8v9.6z"/>
        <path d="M13.36 9.04l-1.6-1.6c-.32-.32-.8-.32-1.12 0-.32.32-.32.8 0 1.12l1.04 1.04-1.04 1.04c-.32.32-.32.8 0 1.12.16.16.72.48 1.12 0l1.6-1.6c.32-.32.32-.8 0-1.12zM4.32 9.6l1.04-1.04c.32-.32.32-.8 0-1.12-.32-.32-.8-.32-1.12 0l-1.6 1.6c-.32.32-.32.8 0 1.12l1.6 1.6c.48.48.96.16 1.12 0 .32-.32.32-.8 0-1.12L4.32 9.6zM9.12 11.92l-.64-5.2c-.16-.4-.64-.64-1.04-.48-.4.16-.64.64-.48 1.04l.64 5.2c.08.32.48.64 1.04.48.4-.16.64-.64.48-1.04z"/>
    </g>
</svg>
