<svg xmlns="http://www.w3.org/2000/svg" width="16" height="16" viewBox="0 0 16 16">
    <path fill="#123049" d="M15.627 4.305c-.207-.091-.449-.046-.609.114l-1.622 1.622-2.96-.524-.524-2.96L11.535.937c.16-.16.205-.402.114-.61-.092-.206-.301-.336-.527-.325-1.106.051-2.196.498-3.04 1.343-1.298 1.296-1.656 3.17-1.088 4.792L.63 12.502c-.797.797-.797 2.089 0 2.886.382.382.901.598 1.443.598.54 0 1.06-.216 1.442-.598l6.396-6.396c1.6.522 3.428.151 4.699-1.12.844-.845 1.29-1.934 1.343-3.04.01-.226-.119-.435-.326-.527zM3.064 14.171c-.336.336-.881.336-1.217 0-.337-.337-.337-.881 0-1.218.336-.336.881-.336 1.217 0 .336.337.336.881 0 1.218z"/>
</svg>
