<svg xmlns="http://www.w3.org/2000/svg" width="16" height="16" viewBox="0 0 16 16">
    <path fill="#123049" d="M14.095 7.619h-1.143V4.571c0-.841-.681-1.523-1.523-1.523H8.38V1.905C8.381.853 7.528 0 6.476 0 5.425 0 4.571.853 4.571 1.905v1.143H1.524c-.842 0-1.516.681-1.516 1.523L.004 7.467h1.139c1.135 0 2.057.922 2.057 2.057 0 1.135-.922 2.057-2.057 2.057H.003L0 14.476C0 15.318.682 16 1.524 16h2.895v-1.143c0-1.135.922-2.057 2.057-2.057 1.135 0 2.057.922 2.057 2.057V16h2.896c.841 0 1.523-.682 1.523-1.524V11.43h1.143c1.052 0 1.905-.854 1.905-1.905 0-1.052-.853-1.905-1.905-1.905z"/>
</svg>
