<svg xmlns="http://www.w3.org/2000/svg" viewBox="0 0 300 50" width="300" height="50">
	<style>
		tspan { white-space:pre }
		.shp0 { fill: #999999 } 
		.shp1 { fill: #808080 } 
		.shp2 { fill: #808184 } 
	</style>
	<path id="Layer" class="shp0" d="M159.24 32.31C159.94 33.11 160.72 33.84 161.57 34.48C162.42 35.12 163.34 35.66 164.31 36.1C165.28 36.55 166.29 36.89 167.33 37.12C168.37 37.35 169.43 37.46 170.49 37.47C176.29 37.47 180 34.34 180 29.82C180 25.06 176.87 23.5 173.1 21.82L167.3 19.2C163.99 17.75 159.58 15.38 159.58 9.69C159.58 4.18 164.34 0.3 170.66 0.3C171.66 0.3 172.65 0.39 173.63 0.59C174.6 0.79 175.56 1.09 176.47 1.48C177.39 1.87 178.26 2.36 179.08 2.93C179.89 3.5 180.65 4.15 181.33 4.88L179.77 6.68C179.19 6.05 178.55 5.48 177.86 4.99C177.17 4.49 176.42 4.07 175.64 3.73C174.86 3.39 174.04 3.13 173.2 2.97C172.37 2.8 171.51 2.72 170.66 2.73C165.66 2.73 162.25 5.4 162.25 9.58C162.25 13.99 166.08 15.67 168.86 16.94L174.66 19.49C178.9 21.41 182.66 23.79 182.66 29.65C182.66 35.51 177.85 39.91 170.42 39.91C169.21 39.93 168 39.81 166.81 39.56C165.62 39.32 164.46 38.95 163.36 38.45C162.25 37.96 161.2 37.35 160.22 36.63C159.24 35.91 158.35 35.08 157.55 34.17L159.24 32.31Z" />
	<path id="Layer" fill-rule="evenodd" class="shp0" d="M190.32 1L199.14 1C210.91 1 216.54 8.43 216.54 20C216.54 31.57 210.91 39.25 199.2 39.25L190.32 39.25L190.32 1ZM198.85 37C209.23 37 213.76 30 213.76 20C213.76 10 209.23 3.3 198.85 3.3L193 3.3L193 37L198.85 37Z" />
	<path id="Layer" class="shp0" d="M225.07 1L227.73 1L227.73 22.22L227.85 22.22L246.35 1L249.48 1L237.3 15.15L251.17 39.21L248.09 39.21L235.51 17.21L227.73 26.09L227.73 39.21L225.07 39.21L225.07 1Z" />
	<path id="Layer" class="shp1" d="M29.15 11C28.26 11 27.37 11.11 26.5 11.32C25.63 11.53 24.8 11.85 24.01 12.27C23.22 12.68 22.48 13.19 21.81 13.79C21.15 14.38 20.55 15.05 20.05 15.79C19.55 15.06 18.97 14.39 18.31 13.8C17.65 13.21 16.92 12.7 16.14 12.29C15.36 11.87 14.53 11.55 13.67 11.34C12.82 11.12 11.93 11.01 11.05 11.01C9.6 11.01 8.16 11.3 6.81 11.85C5.47 12.41 4.25 13.23 3.22 14.26C2.2 15.29 1.38 16.51 0.83 17.86C0.28 19.2 -0.01 20.65 0 22.1L0 36.88C0 37.14 0.05 37.4 0.15 37.65C0.25 37.89 0.4 38.11 0.59 38.29C0.77 38.48 0.99 38.63 1.23 38.73C1.48 38.83 1.74 38.88 2 38.88C2.27 38.89 2.53 38.84 2.78 38.75C3.02 38.65 3.25 38.5 3.44 38.32C3.62 38.13 3.77 37.9 3.87 37.66C3.96 37.41 4.01 37.15 4 36.88L4 21.72C4 19.84 4.75 18.03 6.08 16.7C7.41 15.37 9.22 14.62 11.1 14.62C12.98 14.62 14.79 15.37 16.12 16.7C17.45 18.03 18.2 19.84 18.2 21.72L18.2 34.72L18.2 34.72C18.27 35.19 18.52 35.62 18.88 35.93C19.24 36.24 19.7 36.4 20.17 36.4C20.65 36.4 21.11 36.24 21.47 35.93C21.83 35.62 22.08 35.19 22.15 34.72L22.15 21.72C22.08 19.79 22.79 17.92 24.13 16.53C25.47 15.14 27.32 14.35 29.25 14.35C31.17 14.35 33.02 15.14 34.36 16.53C35.7 17.92 36.41 19.79 36.34 21.72L36.34 36.86C36.25 37.44 36.41 38.03 36.79 38.47C37.17 38.92 37.73 39.18 38.31 39.18C38.9 39.18 39.46 38.92 39.84 38.47C40.22 38.03 40.38 37.44 40.29 36.86L40.29 22.1C40.29 20.64 40 19.19 39.44 17.84C38.88 16.49 38.06 15.27 37.02 14.24C35.99 13.21 34.76 12.39 33.41 11.83C32.06 11.28 30.61 10.99 29.15 11L29.15 11Z" />
	<path id="Layer" fill-rule="evenodd" class="shp1" d="M76.9 4.73C76.9 4.47 76.95 4.21 77.05 3.96C77.15 3.72 77.3 3.5 77.49 3.32C77.67 3.13 77.89 2.98 78.13 2.88C78.38 2.78 78.64 2.73 78.9 2.73C79.16 2.73 79.42 2.78 79.67 2.88C79.91 2.98 80.13 3.13 80.31 3.32C80.5 3.5 80.65 3.72 80.75 3.96C80.85 4.21 80.9 4.47 80.9 4.73L80.9 16C82.99 13 86.23 11 91.25 11C97.73 11 104.16 16.23 104.16 25.06L104.16 25.17C104.16 34.05 97.73 39.17 91.25 39.17C86.25 39.17 83.1 37.17 80.9 33.92L80.9 36.82C80.9 37.35 80.69 37.86 80.31 38.23C79.94 38.61 79.43 38.82 78.9 38.82C78.37 38.82 77.86 38.61 77.49 38.23C77.11 37.86 76.9 37.35 76.9 36.82L76.9 4.73ZM100.05 25C100.05 18.47 95.76 14.6 90.54 14.6C89.21 14.63 87.9 14.92 86.69 15.46C85.48 16.01 84.38 16.78 83.47 17.75C82.56 18.72 81.86 19.86 81.39 21.1C80.93 22.35 80.72 23.67 80.77 25L80.77 25.1C80.72 26.43 80.93 27.76 81.39 29.01C81.85 30.26 82.56 31.41 83.46 32.39C84.37 33.36 85.47 34.15 86.68 34.7C87.9 35.25 89.21 35.56 90.54 35.6C95.61 35.6 100.05 31.52 100.05 25.14C100.05 25.14 100.05 25 100.05 25Z" />
	<path id="Layer" fill-rule="evenodd" class="shp1" d="M44.18 25.19C44.17 21.4 45.66 17.77 48.33 15.08C51 12.39 54.62 10.87 58.41 10.86C62.2 10.85 65.83 12.34 68.52 15.01C71.21 17.68 72.73 21.3 72.74 25.09L72.74 25.19C72.75 27.08 72.39 28.95 71.67 30.69C70.95 32.44 69.89 34.02 68.56 35.35C67.22 36.69 65.63 37.74 63.89 38.45C62.14 39.16 60.27 39.52 58.38 39.5C56.51 39.53 54.65 39.18 52.91 38.47C51.18 37.77 49.6 36.72 48.28 35.4C46.96 34.08 45.91 32.5 45.21 30.77C44.5 29.03 44.15 27.17 44.18 25.3L44.18 25.19ZM68.56 25.3L68.56 25.19C68.56 19.31 64.16 14.49 58.38 14.49C52.45 14.49 48.38 19.31 48.38 25.09L48.38 25.19C48.38 31.07 52.72 35.84 58.5 35.84C64.28 35.84 68.56 31.07 68.56 25.3Z" />
	<path id="Layer" class="shp1" d="M108.65 13.34C108.65 13.08 108.7 12.82 108.8 12.57C108.9 12.33 109.05 12.11 109.24 11.93C109.42 11.74 109.64 11.59 109.88 11.49C110.13 11.39 110.39 11.34 110.65 11.34C110.91 11.34 111.17 11.39 111.42 11.49C111.66 11.59 111.88 11.74 112.06 11.93C112.25 12.11 112.4 12.33 112.5 12.57C112.6 12.82 112.65 13.08 112.65 13.34L112.65 36.88C112.66 37.14 112.61 37.41 112.51 37.66C112.42 37.9 112.27 38.13 112.08 38.31C111.9 38.5 111.67 38.65 111.43 38.74C111.18 38.84 110.91 38.89 110.65 38.88C110.39 38.88 110.13 38.83 109.88 38.73C109.64 38.63 109.42 38.48 109.24 38.29C109.05 38.11 108.9 37.89 108.8 37.65C108.7 37.4 108.65 37.14 108.65 36.88L108.65 13.34Z" />
	<path id="Layer" class="shp1" d="M118.45 4.7C118.45 4.17 118.66 3.66 119.04 3.29C119.41 2.91 119.92 2.7 120.45 2.7C120.98 2.7 121.49 2.91 121.86 3.29C122.24 3.66 122.45 4.17 122.45 4.7L122.45 36.88C122.46 37.15 122.41 37.41 122.32 37.66C122.22 37.9 122.07 38.13 121.89 38.32C121.7 38.5 121.47 38.65 121.23 38.75C120.98 38.84 120.72 38.89 120.45 38.88C120.19 38.88 119.93 38.83 119.68 38.73C119.44 38.63 119.22 38.48 119.04 38.29C118.85 38.11 118.7 37.89 118.6 37.65C118.5 37.4 118.45 37.14 118.45 36.88L118.45 4.7Z" />
	<path id="Layer" fill-rule="evenodd" class="shp2" d="M141.18 39.15C133.78 39.15 127.74 33.47 127.74 25.15L127.74 25C127.74 17.24 133.21 11 140.66 11C148.66 11 153.17 17.51 153.17 24.65C153.17 24.9 153.12 25.14 153.03 25.37C152.93 25.6 152.79 25.8 152.62 25.98C152.44 26.15 152.24 26.29 152.01 26.38C151.78 26.47 151.54 26.52 151.29 26.52L131.8 26.52C132.38 32.36 136.49 35.64 141.29 35.64C142.01 35.65 142.72 35.58 143.42 35.45C144.13 35.31 144.81 35.11 145.48 34.85C146.14 34.58 146.78 34.25 147.38 33.86C147.98 33.47 148.54 33.02 149.05 32.52C149.13 32.45 149.21 32.38 149.3 32.33C149.39 32.27 149.48 32.22 149.58 32.18C149.68 32.14 149.78 32.11 149.89 32.09C149.99 32.07 150.09 32.05 150.2 32.05C150.43 32.04 150.67 32.08 150.88 32.16C151.1 32.25 151.3 32.38 151.47 32.54C151.64 32.7 151.77 32.89 151.86 33.11C151.95 33.33 152 33.56 152 33.79C152 33.91 151.98 34.04 151.95 34.16C151.92 34.28 151.88 34.4 151.83 34.51C151.77 34.62 151.71 34.73 151.63 34.82C151.55 34.92 151.47 35.01 151.37 35.09C150.71 35.76 149.98 36.36 149.2 36.88C148.41 37.4 147.57 37.84 146.7 38.19C145.83 38.54 144.92 38.79 143.99 38.95C143.06 39.12 142.12 39.18 141.18 39.15ZM149.18 23.57C148.77 18.68 145.95 14.4 140.59 14.4C135.9 14.4 132.35 18.31 131.83 23.57L149.18 23.57Z" />
</svg>