<svg id="Layer_1" data-name="Layer 1" xmlns="http://www.w3.org/2000/svg" viewBox="0 0 53.46 52.5"><title>payment-link-icon</title><path d="M15.32,49.35c-5.13,0-9.28-4.46-9.28-10a10.33,10.33,0,0,1,2.71-7l9.09-9.76a9.51,9.51,0,0,1,1.73-1.45,8.75,8.75,0,0,1,9.85.11A9.11,9.11,0,0,1,31,22.6a2.37,2.37,0,0,1,.62,1.77,2.2,2.2,0,0,1-2.26,2.16A2,2,0,0,1,28,25.86a4.77,4.77,0,0,0-7.07,0l-9.13,9.73a5.66,5.66,0,0,0,0,7.59,4.75,4.75,0,0,0,7.07,0l5.43-5.79a12.15,12.15,0,0,0,4.85,1h.28l-7.5,8A8.91,8.91,0,0,1,15.32,49.35Z" style="fill:#9acded"/><path d="M29.1,34.56h-.52a6,6,0,0,1-.94-.1,6.93,6.93,0,0,1-.79-.17l-.39-.12L26.05,34l-.43-.17-.42-.19a9,9,0,0,1-2.65-2,2.36,2.36,0,0,1-.63-1.77,2.22,2.22,0,0,1,2.27-2.16,2.12,2.12,0,0,1,1.39.68,4.77,4.77,0,0,0,7.07,0L35,25.86h0l6.72-7.21a5.69,5.69,0,0,0,0-7.63,4.8,4.8,0,0,0-7.11,0l-5.4,5.83a11.94,11.94,0,0,0-4.84-1h-.28l7.5-8a8.85,8.85,0,0,1,13.13-.33,10.5,10.5,0,0,1,.3,14.09l-.3.32-9.1,9.76a9.13,9.13,0,0,1-4.28,2.62h-.05l-.4.09-.23,0-.45.07H30l-.47.05H29.1Z" style="fill:#07addc"/></svg>