<svg id="Layer_1" data-name="Layer 1" xmlns="http://www.w3.org/2000/svg" viewBox="0 0 178.9 48.58"><title>Artboard 5</title><path d="M4.81,46.77a3,3,0,0,1-3-3V4.91a3,3,0,0,1,5.94,0V43.8A3,3,0,0,1,4.81,46.77Z" style="fill:#07addc"/><path d="M22.62,38.11a3,3,0,0,1-3-3V13.55a3,3,0,1,1,5.93,0v21.6A3,3,0,0,1,22.62,38.11Z" style="fill:#07addc"/><path d="M40.42,46.77a3,3,0,0,1-3-3V4.91a3,3,0,1,1,5.93,0V43.8A3,3,0,0,1,40.42,46.77Z" style="fill:#07addc"/><path d="M67.92,35a1.82,1.82,0,0,1-.74-1.47A1.76,1.76,0,0,1,69,31.8a1.62,1.62,0,0,1,1,.32A15.2,15.2,0,0,0,78.56,35c3.25,0,5.6-1.67,5.6-4.3v-.1c0-2.73-3.19-3.78-6.76-4.77-4.24-1.21-9-2.67-9-7.65v-.11c0-4.66,3.88-7.76,9.22-7.76a18.93,18.93,0,0,1,8.65,2.31,2,2,0,0,1,1,1.68A1.76,1.76,0,0,1,85.53,16a2.08,2.08,0,0,1-.89-.21,14.69,14.69,0,0,0-7.08-2.1c-3.2,0-5.24,1.68-5.24,3.93v.11c0,2.57,3.35,3.56,7,4.66,4.19,1.26,8.7,2.88,8.7,7.76v.1c0,5.14-4.24,8.13-9.64,8.13A18.7,18.7,0,0,1,67.92,35" style="fill:gray"/><path d="M116.06,21.9a11.61,11.61,0,0,0-23.21.39V36A2.07,2.07,0,0,0,95,38.12,2,2,0,0,0,97,36V21.9a7.46,7.46,0,1,1,14.91,0V36a2.08,2.08,0,1,0,4.15,0s0-12.84,0-14.13" style="fill:gray"/><path d="M163.69,10.4h0A13.89,13.89,0,0,0,150,24.15h0V44.8a2,2,0,0,0,2,2,1.92,1.92,0,0,0,1.94-2V32.3A11.93,11.93,0,0,0,164,37.93c6.39,0,12.63-5.11,12.63-13.75v-.11C176.66,15.39,170.31,10.4,163.69,10.4Zm9.62,13.83c0,6.39-4.34,10.17-9.64,10.17a10,10,0,0,1-9.89-9.92h0c0-.1,0-.21,0-.32A10.11,10.11,0,0,1,163.7,13.9c5.18,0,9.61,4,9.61,10.23Z" style="fill:gray"/><path d="M144.49,21.35h0a11.81,11.81,0,0,0-11.75-10.74h-5.27a1.91,1.91,0,1,0,0,3.81h5.26A7.85,7.85,0,0,1,140.61,22v.34a28.79,28.79,0,0,0-8.33-1.15c-6.86,0-11.57,3-11.57,8.75V30c0,5.55,4.9,8.43,9.92,8.43a11.65,11.65,0,0,0,10-5.35v3.1a1.92,1.92,0,0,0,3.83,0Zm-13.14,13.5c-3.66,0-6.55-1.56-6.55-5v-.11c0-3.4,2.82-5.6,7.9-5.6a34.43,34.43,0,0,1,8,1.15h0C140.66,30.3,136,34.85,131.35,34.85Z" style="fill:gray"/></svg>