<svg xmlns="http://www.w3.org/2000/svg" data-name="Layer 1" viewBox="0 0 54 54"><path fill="#9ACDED" d="M48 27c0 11.58-9.42 21-21 21S6 38.58 6 27 15.42 6 27 6c2.14 0 5.38 0 7.19 2.59.77 1.1 2.11 4.08-1.95 8.13a3.38 3.38 0 004.77 4.78c2.7-2.7 4.9-2.96 6.29-2.71 1.65.3 3.03 1.48 3.89 3.34.71 1.56.81 3.26.81 4.87zm-3.06 0c0-1.46-.09-2.63-.53-3.6-.3-.64-.83-1.46-1.66-1.6-.93-.17-2.2.49-3.58 1.86a6.44 6.44 0 01-9.08-9.1c1-1 2.53-2.88 1.6-4.22-.84-1.19-2.54-1.28-4.69-1.28C17.1 9.06 9.06 17.1 9.06 27c0 9.9 8.05 17.94 17.94 17.94 9.9 0 17.94-8.05 17.94-17.94zm-24.21 4.75a4.32 4.32 0 01-6.15 0 4.36 4.36 0 116.15 0zm-2.16-4a1.3 1.3 0 00-1.83 0 1.3 1.3 0 101.83 0zm9.83 5.52a4.36 4.36 0 11-6.18 6.15 4.36 4.36 0 016.18-6.15zm-2.17 2.16a1.3 1.3 0 10-1.83 1.83 1.3 1.3 0 001.83-1.83zM17.7 21.16a4.32 4.32 0 010-6.16 4.36 4.36 0 113.08 7.43 4.32 4.32 0 01-3.08-1.27zm1.78-3.08a1.29 1.29 0 001.3 1.3 1.3 1.3 0 00.92-2.21 1.3 1.3 0 00-1.84 0c-.24.24-.38.57-.38.91zm19.16 11.73a4.36 4.36 0 01-3.08 7.43 4.36 4.36 0 010-8.7c1.16 0 2.26.45 3.08 1.27zm-1.79 3.08a1.29 1.29 0 00-1.3-1.3 1.3 1.3 0 101.3 1.3z"/></svg>