<svg xmlns="http://www.w3.org/2000/svg" data-name="Layer 1" viewBox="0 0 54 54"><path fill="#9acded" d="M44.46 39.67a12.24 12.24 0 002.41-7.3A12.72 12.72 0 0041 21.78a15.24 15.24 0 00-5-9.93 17.86 17.86 0 00-12.18-4.61 17.82 17.82 0 00-12.13 4.61 15.17 15.17 0 00-5.1 11.29 14.93 14.93 0 003.07 9.07l-3 7.32a1.58 1.58 0 00.37 1.72 1.56 1.56 0 001.09.44 1.59 1.59 0 00.64-.13l8.44-3.72a18.43 18.43 0 003.27.91 13.46 13.46 0 004.76 4.63 14.82 14.82 0 007.4 2h.12a15 15 0 005.25-.92l6.63 2.92a1.56 1.56 0 00.63.14 1.58 1.58 0 001.46-2.17zm-3.27.33l1.19 2.94-3.68-1.62a1.55 1.55 0 00-1.25 0 12 12 0 01-4.6.94h-.06A11.6 11.6 0 0124.71 39a18.52 18.52 0 007.41-1.94 1.58 1.58 0 00-1.43-2.81 15.23 15.23 0 01-6.87 1.62 15 15 0 01-6-1.21 1.6 1.6 0 00-1.25 0l-5.51 2.43 1.86-4.59a1.56 1.56 0 00-.27-1.61 11.89 11.89 0 01-2.92-7.78c0-7 6.31-12.76 14.08-12.76S37.9 16.1 37.9 23.14a11.88 11.88 0 01-1.9 6.45 1.57 1.57 0 002.64 1.71 15 15 0 002.21-5.62 9.34 9.34 0 012.9 6.69 9.2 9.2 0 01-2.26 6 1.6 1.6 0 00-.3 1.63zm-15.88-8.77a1.57 1.57 0 01-1.57 1.57 1.57 1.57 0 110-3.14 1.57 1.57 0 011.57 1.57zm4.41-11.79v.07a5.9 5.9 0 01-3.59 5.43 1.23 1.23 0 00-.74 1.15v.11a1.58 1.58 0 01-3.15 0v-.11A4.4 4.4 0 0124.9 22a2.75 2.75 0 001.67-2.49 2.76 2.76 0 00-5.51 0 1.57 1.57 0 01-3.14 0 5.9 5.9 0 0111.8-.07z"/></svg>