<svg width="256" height="256" viewBox="0 0 256 256" fill="none" xmlns="http://www.w3.org/2000/svg">
<path d="M198.384 143C201.465 143 204.419 144.217 206.598 146.384C208.776 148.551 210 151.49 210 154.554V170.076C209.605 172.83 208.225 175.35 206.112 177.173C204 178.996 201.297 180 198.5 180C195.703 180 193 178.996 190.888 177.173C188.775 175.35 187.395 172.83 187 170.076V154.439C187.03 151.434 188.235 148.559 190.36 146.423C192.485 144.288 195.363 143.06 198.384 143Z" fill="#07ADDC"/>
<path d="M57.3838 143C60.4646 143 63.4193 144.221 65.5977 146.395C67.7762 148.568 69 151.517 69 154.591V170.045C68.6054 172.807 67.2251 175.335 65.1125 177.164C62.9999 178.993 60.2969 180 57.5 180C54.7031 180 52.0001 178.993 49.8875 177.164C47.7749 175.335 46.3946 172.807 46 170.045V154.591C45.9994 151.556 47.1913 148.643 49.3197 146.476C51.4482 144.309 54.3435 143.061 57.3838 143V143Z" fill="#07ADDC"/>
<path d="M57.3838 72C60.4646 72 63.4193 73.2871 65.5977 75.5783C67.7762 77.8694 69 80.9769 69 84.217V100.506C68.6054 103.419 67.2251 106.083 65.1125 108.011C62.9999 109.939 60.2969 111 57.5 111C54.7031 111 52.0001 109.939 49.8875 108.011C47.7749 106.083 46.3946 103.419 46 100.506V84.217C45.9994 81.0188 47.1913 77.9478 49.3197 75.6635C51.4482 73.3793 54.3435 72.064 57.3838 72V72Z" fill="#07ADDC"/>
<path d="M198.384 72C201.465 72 204.419 73.2871 206.598 75.5783C208.776 77.8694 210 80.9769 210 84.217V100.506C209.605 103.419 208.225 106.083 206.112 108.011C204 109.939 201.297 111 198.5 111C195.703 111 193 109.939 190.888 108.011C188.775 106.083 187.395 103.419 187 100.506V84.217C186.999 81.0188 188.191 77.9478 190.32 75.6635C192.448 73.3793 195.343 72.064 198.384 72V72Z" fill="#07ADDC"/>
<path d="M127.5 182C130.815 182 133.995 183.27 136.339 185.531C138.683 187.792 140 190.858 140 194.055V204.945C140 208.142 138.683 211.208 136.339 213.469C133.995 215.73 130.815 217 127.5 217C124.185 217 121.005 215.73 118.661 213.469C116.317 211.208 115 208.142 115 204.945V193.935C115.033 190.758 116.364 187.723 118.705 185.488C121.046 183.253 124.206 182 127.5 182V182Z" fill="#07ADDC"/>
<path d="M127.5 40C130.815 40 133.995 41.2745 136.339 43.5431C138.683 45.8116 140 48.8885 140 52.0968V62.9032C140 66.1115 138.683 69.1884 136.339 71.4569C133.995 73.7255 130.815 75 127.5 75C124.185 75 121.005 73.7255 118.661 71.4569C116.317 69.1884 115 66.1115 115 62.9032V51.9758C115.033 48.7886 116.364 45.7427 118.705 43.5002C121.046 41.2577 124.206 39.9998 127.5 40Z" fill="#07ADDC"/>
<path d="M127.5 101C130.815 101 133.995 102.224 136.339 104.403C138.683 106.582 140 109.538 140 112.62V144.38C140 147.462 138.683 150.418 136.339 152.597C133.995 154.776 130.815 156 127.5 156C124.185 156 121.005 154.776 118.661 152.597C116.317 150.418 115 147.462 115 144.38V112.62C115 109.538 116.317 106.582 118.661 104.403C121.005 102.224 124.185 101 127.5 101Z" fill="#07ADDC"/>
</svg>
