<svg id="Layer_1" data-name="Layer 1" xmlns="http://www.w3.org/2000/svg" viewBox="0 0 53.46 54.59"><title>security-icon</title><g id="_9" data-name="9"><path d="M26.72,32.76a1.37,1.37,0,0,0-1.37,1.37V39.6a1.37,1.37,0,1,0,2.74,0V34.13A1.38,1.38,0,0,0,26.72,32.76Zm10.93-5.44v-11a10.94,10.94,0,0,0-21.87,0v11a13.68,13.68,0,1,0,21.87,0Zm-19.13-11a8.2,8.2,0,0,1,16.4,0v8.22a13.6,13.6,0,0,0-16.4,0Zm8.2,30.07a10.94,10.94,0,1,1,0-21.87A11.21,11.21,0,0,1,37.65,35.5,10.93,10.93,0,0,1,26.72,46.43Z" style="fill:#9acded"/></g></svg>