<svg id="Layer_1" data-name="Layer 1" xmlns="http://www.w3.org/2000/svg" viewBox="0 0 53.46 54.01"><title>user-icon</title><path d="M26.73,4.05A13.33,13.33,0,1,0,40.06,17.38,13.33,13.33,0,0,0,26.73,4.05Zm0,22.21a8.89,8.89,0,1,1,8.88-8.88A8.9,8.9,0,0,1,26.73,26.26Z" style="fill:#9acded"/><path d="M37.1,31c-4.33-1-5,1.21-10.37,1.21S20.7,30,16.36,31A13.53,13.53,0,0,0,6.07,44.2v1.31A4.45,4.45,0,0,0,10.52,50H42.94a4.44,4.44,0,0,0,4.44-4.45V44.23A13.57,13.57,0,0,0,37.1,31Zm5.82,14.51H10.54V43.12a8,8,0,0,1,8-8c1.34,0,3.52,1.49,8.24,1.49s6.89-1.49,8.24-1.49a8,8,0,0,1,8,8Z" style="fill:#9acded"/></svg>