<svg xmlns="http://www.w3.org/2000/svg" width="16" height="16" viewBox="0 0 16 16">
    <g fill="#123049">
        <path d="M14.833 4C15.473 4 16 4.527 16 5.167v5.666c0 .64-.527 1.167-1.167 1.167H9.167C8.527 12 8 11.473 8 10.833V5.167C8 4.527 8.527 4 9.167 4zM12 6.02c-1.105 0-2 .896-2 2 0 1.105.895 2 2 2s2-.895 2-2c0-1.104-.895-2-2-2z"/>
        <path d="M10.667 2.667V2c0-1.1-.9-2-2-2H2C.9 0 0 .9 0 2v12c0 1.1.9 2 2 2h6.667c1.1 0 2-.9 2-2v-.667H9.333V14c0 .367-.3.667-.666.667H2c-.367 0-.667-.3-.667-.667V2c0-.367.3-.667.667-.667h.333c.367 0 .667.3.667.667 0 .367.3.667.667.667H7c.367 0 .667-.3.667-.667 0-.367.3-.667.666-.667h.334c.366 0 .666.3.666.667v.667h1.334z"/>
    </g>
</svg>
