<svg xmlns="http://www.w3.org/2000/svg" width="16" height="16" viewBox="0 0 16 16">
    <g fill="#123049">
        <path d="M15.2 0H.8C.32 0 0 .32 0 .8v14.4c0 .4.32.8.8.8h14.4c.4 0 .8-.4.8-.8V.8c0-.48-.4-.8-.8-.8zM5.6 1.6c.48 0 .8.32.8.8 0 .48-.32.8-.8.8-.48 0-.8-.4-.8-.8 0-.48.32-.8.8-.8zm-3.2 0c.4 0 .8.32.8.8 0 .48-.4.8-.8.8-.48 0-.8-.4-.8-.8 0-.48.32-.8.8-.8zm12 12.8H1.6V4.8h12.8v9.6z"/>
        <path d="M11.2 7.2H4.8c-.48 0-.8.32-.8.8 0 .48.32.8.8.8h6.4c.4 0 .8-.32.8-.8 0-.48-.32-.8-.8-.8zM8.8 10.4h-4c-.48 0-.8.32-.8.8 0 .48.32.8.8.8h4c.4 0 .8-.32.8-.8 0-.48-.32-.8-.8-.8z"/>
    </g>
</svg>
