<?xml version="1.0" encoding="UTF-8"?>
<!DOCTYPE svg PUBLIC "-//W3C//DTD SVG 1.1//EN" "http://www.w3.org/Graphics/SVG/1.1/DTD/svg11.dtd">
<!-- Creator: CorelDRAW 2019 (64-Bit) -->
<svg xmlns="http://www.w3.org/2000/svg" xml:space="preserve" width="728px" height="180px" version="1.1" style="shape-rendering:geometricPrecision; text-rendering:geometricPrecision; image-rendering:optimizeQuality; fill-rule:evenodd; clip-rule:evenodd"
viewBox="0 -12 728 182.87">
 <defs>
  <style type="text/css">
   <![CDATA[
    .fil3 {fill:white}
    .fil4 {fill:black;fill-rule:nonzero}
    .fil0 {fill:#00AA11;fill-rule:nonzero}
    .fil2 {fill:#00AED6;fill-rule:nonzero}
    .fil1 {fill:black;fill-rule:nonzero}
   ]]>
  </style>
 </defs>
 <g id="Layer_x0020_1">
  <metadata id="CorelCorpID_0Corel-Layer"/>
  <path class="fil2" d="M79.43 0c43.86,0 79.42,34.32 79.42,76.65 0,42.33 -35.56,76.65 -79.42,76.65 -43.87,0 -79.43,-34.32 -79.43,-76.65 0,-42.33 35.56,-76.65 79.43,-76.65z"/>
  <path class="fil3" d="M125.76 74.29c-0.61,-9.76 -9.21,-17.24 -19.33,-16.8l-50.17 0c-1.83,0 -3.31,-1.43 -3.31,-3.2 0,-1.76 1.48,-3.19 3.31,-3.19l50.83 0c-0.29,-6.61 -4.97,-12.29 -11.58,-14.05 -14.82,-2.56 -29.99,-2.56 -44.81,0 -8.42,2 -14.72,8.76 -15.88,17.05 -2.32,15.04 -2.32,30.32 0,45.35 1.77,8.78 8.99,15.57 18.13,17.06 18.37,2.23 36.96,2.23 55.33,0 8.19,-1.6 14.38,-8.09 15.36,-16.1 1.68,-8.61 2.39,-17.37 2.12,-26.12zm-16.55 10.73l0 0 0 2.81c0,1.76 -1.48,3.19 -3.31,3.19 -1.83,0 -3.31,-1.43 -3.31,-3.19l0 -2.81c-1.07,-0.9 -1.67,-2.21 -1.65,-3.58 0,-2.65 2.22,-4.79 4.96,-4.79 2.74,0 4.96,2.14 4.96,4.79 -0.01,1.36 -0.61,2.66 -1.65,3.58z"/>
  <path class="fil4" d="M385.08 68.03c0.11,-13.44 -11.09,-24.42 -25.02,-24.53 -13.93,-0.1 -25.3,10.7 -25.41,24.14 -0.11,13.44 11.09,24.43 25.02,24.53 0.13,0 0.26,0 0.39,0 13.21,0.69 24.5,-9.1 25.21,-21.85 0.04,-0.76 0.04,-1.53 0.01,-2.29l-0.2 0zm-74.92 0l0 0c0,-25.55 20.91,-45.03 49.9,-45.03 28.99,0 49.91,19.6 49.91,45.03 0,25.42 -20.72,45.09 -49.91,45.09 -29.19,0 -49.9,-19.61 -49.9,-45.09z"/>
  <path class="fil4" d="M270.44 72.69c0,10.54 -11.12,19.16 -25.21,19.16 -12.95,1.27 -24.51,-7.84 -25.82,-20.34 -0.13,-1.26 -0.15,-2.53 -0.06,-3.8 0,-13.93 10.59,-23.51 26.87,-23.51 13.24,0 24.22,8.75 24.22,18.65l0 9.84zm0.99 -49.76l0 0 0 10.09c-8.05,-7.06 -18.72,-10.67 -29.58,-10.02 -25.68,0.22 -46.3,20.5 -46.07,45.28 0.24,24.78 21.25,44.69 46.93,44.46 10.57,0.46 20.86,-3.36 28.39,-10.54l0 8.62c0,11.69 -10.45,20.25 -24.22,20.25 -10.51,0.73 -20.87,-2.78 -28.59,-9.71l-16.09 14.95c12.06,11.42 28.45,17.56 45.34,16.99 28.2,0 47.52,-18.27 47.52,-42.6l0 -87.77 -23.63 0z"/>
  <path class="fil4" d="M424.53 25.55l23.69 0 0 7.54 0.33 0c7.77,-6.84 18.03,-10.42 28.53,-9.97 25.79,0.94 45.91,21.88 44.94,46.76 -0.92,23.58 -20.51,42.48 -44.94,43.37 -10.03,0.22 -19.82,-2.96 -27.67,-9.01l0 42.67 -24.68 0 -0.2 -121.36zm48.71 18.65l0 0c-13.24,0 -24.02,8.88 -24.02,18.53l0 10.79c0,10.28 10.65,18.78 24.15,18.78 13.77,0.68 25.5,-9.53 26.21,-22.81 0.71,-13.28 -9.87,-24.6 -23.64,-25.29 -0.85,-0.04 -1.71,-0.04 -2.57,0l-0.13 0z"/>
  <path class="fil4" d="M569.41 59.79c16.22,-2.11 21.05,-4.35 21.05,-8.69 0,-5.62 -6.15,-9.01 -15.69,-9.01 -10.27,-0.81 -19.62,5.73 -22.04,15.4l-23.29 -4.67c3.31,-17.37 21.84,-29.76 44.67,-29.76 25.82,0 41.83,12.77 41.83,33.47l0 54.23 -22.17 0 0 -9.45 -0.33 0c-7.52,8.17 -18.55,12.51 -29.85,11.75 -19.53,0 -33.1,-10.29 -33.1,-25.55 0,-15.27 11.12,-24.02 38.92,-27.72zm23.04 9l0 0 -0.33 0c-2.19,3.07 -6.62,4.86 -18.87,6.9 -14.49,2.62 -19.85,5.37 -19.85,10.35 0,4.98 4.3,7.41 13.63,7.41 14.23,0 25.22,-6.39 25.22,-14.5l0.2 -10.16z"/>
  <polygon class="fil4" points="660.62,105.97 619.78,25.55 646.99,25.55 673.79,81.25 674.19,81.25 700.66,25.55 728,25.55 666.84,146.91 639.64,146.91 "/>
 </g>
</svg>
