<?xml version="1.0" ?><!DOCTYPE svg  PUBLIC '-//W3C//DTD SVG 1.1//EN'  'http://www.w3.org/Graphics/SVG/1.1/DTD/svg11.dtd'><svg height="100%" style="fill-rule:evenodd;clip-rule:evenodd;stroke-linejoin:round;stroke-miterlimit:1.41421;" version="1.1" viewBox="0 0 195 110" width="100%" xml:space="preserve" xmlns="http://www.w3.org/2000/svg" xmlns:xlink="http://www.w3.org/1999/xlink"><g><path d="M114.516,39.946L113.66,45.354L122.881,45.354L121.754,52.469L112.536,52.469L110.525,65.162L102.12,65.162L107.245,32.829L125.812,32.829L124.678,39.946L114.516,39.946Z" style="fill:rgb(30,92,178);fill-rule:nonzero;"/><path d="M133.954,65.162L125.55,65.162L130.671,32.829L139.076,32.829L133.954,65.162Z" style="fill:rgb(30,92,178);fill-rule:nonzero;"/><path d="M152.607,39.946L151.75,45.354L161.228,45.354L160.104,52.469L150.625,52.469L149.739,58.041L159.733,58.041L158.607,65.162L140.206,65.162L145.331,32.829L163.724,32.829L162.599,39.946L152.607,39.946Z" style="fill:rgb(30,92,178);fill-rule:nonzero;"/><path d="M175.822,39.946L177.795,39.946C183.196,39.946 186.498,43.207 185.577,48.996C184.586,55.294 179.86,58.041 174.844,58.041L172.958,58.041L175.822,39.946ZM163.425,65.162L175.348,65.162C184.305,65.162 192.885,58.089 194.329,48.996C195.77,39.907 189.469,32.829 180.463,32.829L168.545,32.829L163.425,65.162Z" style="fill:rgb(30,92,178);fill-rule:nonzero;"/><path d="M68.019,88.424C70.3,88.424 71.365,90.238 71.055,92.388C70.742,94.608 69.171,96.318 66.901,96.318C64.617,96.318 63.539,94.608 63.856,92.388C64.162,90.238 65.745,88.424 68.019,88.424ZM57.191,101.142L62.792,101.142L63.07,99.194L63.13,99.194C63.898,100.938 65.698,101.724 67.541,101.724C72.25,101.724 76.127,97.417 76.851,92.353C77.565,87.325 74.948,83.02 70.269,83.02C68.454,83.02 66.466,83.77 65.05,85.314L66.842,72.763L61.238,72.763L57.191,101.142Z" style="fill:rgb(30,92,178);fill-rule:nonzero;"/><path d="M77.327,83.604L83.786,83.604L86.72,92.594L92.127,83.604L98.495,83.604L82.105,109.892L75.821,109.892L82.799,98.75L77.327,83.604Z" style="fill:rgb(30,92,178);fill-rule:nonzero;"/><path d="M128.012,101.142L136.646,72.666L144.349,72.666L135.719,101.142L128.012,101.142Z" style="fill:rgb(30,92,178);fill-rule:nonzero;"/><path d="M124.564,72.666L117.631,84.745C115.87,87.912 114.835,89.502 114.344,91.504L114.235,91.504C114.356,88.967 114.011,85.856 113.972,84.098L113.214,72.666L100.238,72.666L100.108,73.434C103.44,73.434 105.409,75.114 105.95,78.539L108.477,101.142L116.467,101.142L132.613,72.666L124.564,72.666Z" style="fill:rgb(30,92,178);fill-rule:nonzero;"/><path d="M184.498,101.142L184.281,96.907L174.662,96.896L172.691,101.142L164.326,101.142L179.493,72.727L189.765,72.727L192.326,101.142L184.498,101.142ZM183.613,84.34C183.521,82.242 183.457,79.386 183.595,77.66L183.488,77.66C183.016,79.076 181.002,83.316 180.105,85.403L177.248,91.645L184.003,91.645L183.613,84.34Z" style="fill:rgb(30,92,178);fill-rule:nonzero;"/><path d="M152.444,101.96C147.001,101.96 143.393,100.23 140.815,98.689L144.48,93.078C146.796,94.37 148.62,95.871 152.798,95.871C154.147,95.871 155.441,95.516 156.173,94.247C157.253,92.392 155.928,91.396 152.918,89.697L151.428,88.723C146.963,85.674 145.035,82.786 147.142,77.731C148.483,74.489 152.027,72.043 157.878,72.043C161.909,72.043 165.692,73.785 167.896,75.493L163.67,80.44C161.523,78.696 159.744,77.819 157.701,77.819C156.075,77.819 154.837,78.447 154.416,79.296C153.617,80.886 154.674,81.971 157.02,83.421L158.788,84.549C164.202,87.964 165.49,91.545 164.132,94.902C161.804,100.669 157.224,101.96 152.444,101.96Z" style="fill:rgb(30,92,178);fill-rule:nonzero;"/><path d="M47.777,39.946L46.923,45.354L56.398,45.354L55.275,52.469L45.797,52.469L44.912,58.041L54.909,58.041L53.777,65.162L35.379,65.162L40.502,32.829L58.899,32.829L57.773,39.946L47.777,39.946Z" style="fill:rgb(30,92,178);fill-rule:nonzero;"/><path d="M71.143,39.243L71.959,39.243C74.704,39.243 77.712,39.757 77.154,43.273C76.6,46.791 73.428,47.304 70.685,47.304L69.868,47.304L71.143,39.243ZM77.46,51.893C82.18,51.078 85.279,47.218 85.982,42.761C87.075,35.857 82.711,32.81 76.323,32.81L63.755,32.81L58.638,65.144L67.048,65.144L69.012,52.709L69.098,52.709L75.061,65.144L85.526,65.144L77.46,51.893Z" style="fill:rgb(30,92,178);fill-rule:nonzero;"/><path d="M95.895,65.162L87.485,65.162L92.609,32.829L101.014,32.829L95.895,65.162Z" style="fill:rgb(30,92,178);fill-rule:nonzero;"/><path d="M49.969,0.588L36.739,21.647L18.752,52.106L17.7,40.752L16.875,28.409L0.354,28.409L0.188,29.383C4.429,29.383 6.938,31.517 7.636,35.886L10.846,64.666L10.866,64.602L10.909,65.024L22.268,65.024L42.568,23.963L54.877,0.588L49.969,0.588Z" style="fill:rgb(30,92,178);fill-rule:nonzero;"/><path d="M21.591,35.277L22.549,35.277L34.499,15.034L34.504,14.084L7.319,14.084L7.319,15.051L20.42,20.627L21.591,35.277Z" style="fill:rgb(249,177,11);fill-rule:nonzero;"/></g></svg>